# xmcd
#
# Track frame offsets:
#	150
#	19127
#	37852
#	56462
#	75472
#	90695
#	107252
#	120927
#	137185
#	156517
#	174962
#	195502
#	214027
#
# Disc length: 3076 seconds
#
# Revision: 0
# Processed by: cddbd v1.5.2PL0 Copyright (c) Steve Scherf et al.
# Submitted via: EasyCDDAExtractor 12.1.0.1
#
DISCID=980c020d
DTITLE=SAMPA CREW - SOUL BRASIL-1996/29/04/2010
DYEAR=1996
DGENRE=FUNK
TTITLE0=MULHER BRASILEIRA (PART.ESP.JORGE BENJOR) (BY DJ GILMAR SINISTRO)
TTITLE1=CADA UM,CADA UM (BY DJ GILMAR SINISTRO)
TTITLE2=PRIMAVERA (BY DJ GILMAR SINISTRO)
TTITLE3=ALMA METADE (BY DJ GILMAR SINISTRO)
TTITLE4=AZUL DA COR DO MAR (BY DJ GILMAR SINISTRO)
TTITLE5=A LUA E EU (BY DJ GILMAR SINISTRO)
TTITLE6=MULHER FATAL (BY DJ GILMAR SINISTRO)
TTITLE7=LINHA DO HORIZONTE (BY DJ GILMAR SINISTRO)
TTITLE8=TE AMAR DEMAIS (BY DJ GILMAR SINISTRO)
TTITLE9=PÉROLA NEGRA (PART.ESP.LUIZ MELODIA) (BY DJ GILMAR SINISTRO)
TTITLE10=NADA MAIS (BY DJ GILMAR SINISTRO)
TTITLE11=RETRATOS E CANÇÕES (BY DJ GILMAR SINISTRO)
TTITLE12=CONDIÇÃO (BY DJ GILMAR SINISTRO)
EXTD=Sampa Crew_Soul Brasil\n
EXTT0=
EXTT1=
EXTT2=
EXTT3=
EXTT4=
EXTT5=
EXTT6=
EXTT7=
EXTT8=
EXTT9=
EXTT10=
EXTT11=
EXTT12=
PLAYORDER=
